<?xml version="1.0" standalone="no"?>
<!DOCTYPE svg PUBLIC "-//W3C//DTD SVG 20010904//EN"
 "http://www.w3.org/TR/2001/REC-SVG-20010904/DTD/svg10.dtd">
<svg version="1.0" xmlns="http://www.w3.org/2000/svg"
 width="512.000000pt" height="512.000000pt" viewBox="0 0 512.000000 512.000000"
 preserveAspectRatio="xMidYMid meet">
<metadata>
Created by potrace 1.14, written by Peter Selinger 2001-2017
</metadata>
<g transform="translate(0.000000,512.000000) scale(0.100000,-0.100000)"
fill="#000000" stroke="none">
<path d="M2379 5116 c-2 -2 -40 -6 -83 -10 -44 -4 -82 -9 -85 -11 -4 -2 -34
-7 -66 -10 -109 -13 -387 -87 -490 -130 -16 -7 -55 -23 -85 -35 -584 -237
-1096 -742 -1355 -1335 -109 -250 -174 -494 -202 -765 -15 -139 -8 -503 11
-615 3 -16 8 -43 10 -60 13 -90 74 -343 86 -360 4 -5 10 -23 14 -39 20 -84
142 -353 213 -471 86 -143 147 -230 248 -355 73 -89 248 -263 338 -335 21 -16
48 -38 60 -48 12 -11 56 -43 97 -72 309 -217 702 -378 1055 -430 22 -4 51 -8
65 -11 145 -26 530 -26 710 1 198 30 497 113 638 176 361 162 647 367 899 644
293 322 501 720 597 1141 48 210 60 328 61 569 0 217 -11 339 -44 500 -6 28
-13 61 -15 75 -11 55 -50 190 -78 270 -265 755 -865 1344 -1624 1594 -44 14
-89 28 -100 31 -10 2 -57 13 -104 25 -47 12 -96 24 -110 26 -14 2 -38 6 -55 9
-16 3 -50 8 -75 11 -25 3 -56 8 -70 10 -29 6 -456 15 -461 10z"/>
</g>
</svg>
